<svg id="Capa_1" data-name="Capa 1" xmlns="http://www.w3.org/2000/svg" viewBox="0 0 395.68 64.97"><defs><style>.cls-1{fill:#1c48a0;}.cls-2{fill:#0ad9e8;}.cls-3{fill:none;stroke:#1c48a0;stroke-miterlimit:10;stroke-width:2px;}</style></defs><title>planeta</title><path class="cls-1" d="M389.8,394.19V350.64h19.78a9.51,9.51,0,0,1,6.93,2.87,9.27,9.27,0,0,1,2.9,6.83v4.82a9.26,9.26,0,0,1-2.9,6.82,9.48,9.48,0,0,1-6.93,2.88h-9.89v19.33ZM399.69,370h4.92a4.85,4.85,0,0,0,3.52-1.43,4.56,4.56,0,0,0,1.45-3.39v-4.82a4.65,4.65,0,0,0-1.45-3.46,4.84,4.84,0,0,0-3.52-1.42h-4.92Z" transform="translate(-389.8 -339.13)"/><path class="cls-1" d="M429.31,394.19V350.64h9.89v38.73H454v4.82Z" transform="translate(-389.8 -339.13)"/><path class="cls-1" d="M463.84,394.19V360.34a9.24,9.24,0,0,1,2.93-6.86,9.69,9.69,0,0,1,7-2.84h9.89a9.51,9.51,0,0,1,6.93,2.87,9.28,9.28,0,0,1,2.91,6.83v33.85h-9.84V374.86h-9.89v19.33ZM473.73,370h9.89v-9.64a4.65,4.65,0,0,0-1.45-3.46,5,5,0,0,0-7,0,4.69,4.69,0,0,0-1.45,3.46Z" transform="translate(-389.8 -339.13)"/><path class="cls-1" d="M503.35,394.19V350.64h2.31L533,374.86V350.64h5v43.55h-2.25L508.32,370v24.21Z" transform="translate(-389.8 -339.13)"/><path class="cls-1" d="M547.78,394.19V350.64h24.7v4.82H557.67V370h9.89v4.88h-9.89v14.51h14.81v4.82Z" transform="translate(-389.8 -339.13)"/><path class="cls-1" d="M587.29,394.19V355.46h-9.9v-4.82H607v4.82h-9.89v38.73Z" transform="translate(-389.8 -339.13)"/><path class="cls-2" d="M662.24,391.46a30.1,30.1,0,0,1-14.92,3.84c-13.55,0-22.78-9.14-22.78-22.88,0-13.47,9-22.77,23.32-22.77A27,27,0,0,1,661,352.72l.27,9.85h-4.64l-2-10.05,4.39,1.12v3.59c-3.44-2.89-6.67-4.09-10.26-4.09-8.28,0-14.79,6.51-14.79,19.28s6.08,19.34,15,19.34c3.29,0,5.63-.8,9-2.49l-4.06,3.66v-4.4c0-5.15-.07-10.18-.2-15.35h8.76c-.13,5.08-.2,10.19-.2,15.47Zm-15-15.21v-3.07h18.89v3.07l-7.59.85h-2.88Z" transform="translate(-389.8 -339.13)"/><path class="cls-2" d="M698.93,375.1a13.75,13.75,0,0,1-.42,3.59H673.1v-3.11h14.18c3.21,0,4-1.34,4-3.72,0-4-2.64-6.78-5.94-6.78-3.52,0-7.24,3.25-7.24,12.66,0,8.15,4.16,12.17,10,12.17a11.17,11.17,0,0,0,8.71-4.07l1.93,1.66c-2.58,4.89-7.12,7.62-13.4,7.62-9.34,0-15.72-6.16-15.72-16.43,0-10.48,7.79-16.77,16.24-16.77C693.69,361.92,698.93,367.17,698.93,375.1Z" transform="translate(-389.8 -339.13)"/><path class="cls-2" d="M733.33,375.1a13.34,13.34,0,0,1-.42,3.59H707.5v-3.11h14.18c3.21,0,4-1.34,4-3.72,0-4-2.64-6.78-5.94-6.78-3.52,0-7.23,3.25-7.23,12.66,0,8.15,4.15,12.17,10,12.17a11.19,11.19,0,0,0,8.72-4.07l1.93,1.66c-2.58,4.89-7.13,7.62-13.4,7.62-9.35,0-15.72-6.16-15.72-16.43,0-10.48,7.78-16.77,16.23-16.77C728.1,361.92,733.33,367.17,733.33,375.1Z" transform="translate(-389.8 -339.13)"/><path class="cls-2" d="M748.66,346.19l1,.59L749.4,356V380.2c0,4.47.07,10.32.2,14h-8.44c.14-3.67.2-9.52.2-13.75V352.32l-4.83-.65v-2.54ZM754,391.52v2.67H736.7v-2.67l6.89-1.31h3.25Zm15-28.68-23.68,22.7v-3.92l19-18.78Zm-4,26.94,8.18,1.74v2.67H761.84l-9.63-17.25,5.62-5.21,12.38,21.42Zm-2.75-22.92-6.38-1.32v-2.7h15.55v2.7l-7.41,1.07Z" transform="translate(-389.8 -339.13)"/><rect class="cls-3" x="225.05" y="1" width="169.63" height="62.97"/></svg>